<svg viewBox="0 0 108 108" xmlns="http://www.w3.org/2000/svg">
  <defs>
    <linearGradient id="lbg" x1="0" y1="0" x2="1" y2="1">
      <stop offset="0%" stop-color="#3b1fa8"/>
      <stop offset="100%" stop-color="#1a0e5a"/>
    </linearGradient>
    <linearGradient id="larc" x1="0" y1="1" x2="1" y2="0">
      <stop offset="0%" stop-color="#7c3aed"/>
      <stop offset="100%" stop-color="#a78bfa"/>
    </linearGradient>
    <filter id="lglow">
      <feGaussianBlur stdDeviation="1.2" result="blur"/>
      <feMerge><feMergeNode in="blur"/><feMergeNode in="SourceGraphic"/></feMerge>
    </filter>
  </defs>
  <rect width="108" height="108" rx="24" fill="url(#lbg)"/>
  <circle cx="54" cy="56" r="37" fill="none" stroke="#512BD4" stroke-width="2.5" opacity="0.6"/>
  <circle cx="54" cy="56" r="33" fill="#1e1252"/>
  <path d="M 37.5 84.6 A 33 33 0 1 1 70.5 84.6" fill="none" stroke="#2d1b80" stroke-width="5.5" stroke-linecap="round"/>
  <path d="M 37.5 84.6 A 33 33 0 0 1 54 23" fill="none" stroke="url(#larc)" stroke-width="5.5" stroke-linecap="round" filter="url(#lglow)"/>
  <g stroke="#6d4fc4" stroke-linecap="round">
    <line x1="54" y1="25" x2="54" y2="30" stroke-width="2"   transform="rotate(-120 54 56)"/>
    <line x1="54" y1="25" x2="54" y2="28" stroke-width="1.2" transform="rotate(-96 54 56)"/>
    <line x1="54" y1="25" x2="54" y2="28" stroke-width="1.2" transform="rotate(-72 54 56)"/>
    <line x1="54" y1="25" x2="54" y2="30" stroke-width="2"   transform="rotate(-48 54 56)"/>
    <line x1="54" y1="25" x2="54" y2="28" stroke-width="1.2" transform="rotate(-24 54 56)"/>
    <line x1="54" y1="25" x2="54" y2="30" stroke-width="2"   transform="rotate(0 54 56)"/>
    <line x1="54" y1="25" x2="54" y2="28" stroke-width="1.2" transform="rotate(24 54 56)"/>
    <line x1="54" y1="25" x2="54" y2="30" stroke-width="2"   transform="rotate(48 54 56)"/>
    <line x1="54" y1="25" x2="54" y2="28" stroke-width="1.2" transform="rotate(72 54 56)"/>
    <line x1="54" y1="25" x2="54" y2="28" stroke-width="1.2" transform="rotate(96 54 56)"/>
    <line x1="54" y1="25" x2="54" y2="30" stroke-width="2"   transform="rotate(120 54 56)"/>
  </g>
  <g transform="rotate(0 54 56)">
    <line x1="54" y1="56" x2="54" y2="29" stroke="white"   stroke-width="2.2" stroke-linecap="round" filter="url(#lglow)"/>
    <line x1="54" y1="56" x2="54" y2="63" stroke="#512BD4" stroke-width="2.2" stroke-linecap="round"/>
  </g>
  <circle cx="54" cy="56" r="5" fill="#2d1b80" stroke="#7c3aed" stroke-width="1.5"/>
  <circle cx="54" cy="56" r="2" fill="#c4b5fd"/>
  <text x="54" y="93" font-family="Arial,sans-serif" font-weight="700" font-size="10" fill="#a78bfa" text-anchor="middle" letter-spacing="1.5">MM</text>
</svg>
